<svg xmlns="http://www.w3.org/2000/svg" xmlns:xlink="http://www.w3.org/1999/xlink" width="1920" height="235" viewBox="0 0 1920 235"><defs><style>.a{fill:none;stroke:#707070;}.b{clip-path:url(#a);}.c{stroke:rgba(0,0,0,0);stroke-miterlimit:10;}</style><clipPath id="a"><rect class="a" width="1920" height="235" transform="translate(0 738.831)"/></clipPath></defs><g class="b" transform="translate(0 -738.831)"><path class="c" d="M1061.649,197.208l.038.1L55.95,195.122l-2.322-8.1a3.4,3.4,0,0,0,.971.158l13.15.028a3.449,3.449,0,0,0,3.46-3.443l.022-9.715a3.451,3.451,0,0,0-3.446-3.459l-13.149-.029a3.451,3.451,0,0,0-3.458,3.443l-.01,4.437C39.569,151.352,66.29,31.361,7.228,25.206A3.426,3.426,0,0,0,10.3,21.8l.021-9.7A3.45,3.45,0,0,0,6.876,8.643l-4.4-.011L0,0,976.942,2.12l-.028-.1L1982.651,4.207l2.475,8.633-3.676-.007a3.45,3.45,0,0,0-3.46,3.443l-.021,9.7c0,1.914,3.445,3.457,3.445,3.457s14.733,112.816,39.028,126.691c2.453,1.4,3.728,1.9,3.73,1.456l14.428,41.75Zm946.622-19.051-.021,9.716a3.451,3.451,0,0,0,3.443,3.458l13.149.028a3.451,3.451,0,0,0,3.461-3.443l.021-9.715a3.451,3.451,0,0,0-3.443-3.46l-13.152-.028h-.01A3.451,3.451,0,0,0,2008.271,178.158Zm-30.631-.067-.021,9.717a3.452,3.452,0,0,0,3.445,3.457l13.15.028a3.449,3.449,0,0,0,3.458-3.443l.021-9.714a3.449,3.449,0,0,0-3.443-3.461l-13.149-.028h-.008A3.453,3.453,0,0,0,1977.639,178.091Zm-30.629-.067-.021,9.717a3.451,3.451,0,0,0,3.443,3.458l13.15.028a3.45,3.45,0,0,0,3.46-3.444l.022-9.715a3.451,3.451,0,0,0-3.446-3.459l-13.15-.028h-.008A3.449,3.449,0,0,0,1947.01,178.025Zm-30.631-.066-.022,9.715a3.451,3.451,0,0,0,3.443,3.46l13.152.028a3.449,3.449,0,0,0,3.458-3.443l.022-9.715a3.45,3.45,0,0,0-3.443-3.46l-13.15-.028h-.008A3.451,3.451,0,0,0,1916.379,177.959Zm-30.63-.067-.022,9.715a3.452,3.452,0,0,0,3.444,3.46l13.149.028a3.451,3.451,0,0,0,3.46-3.443l.019-9.714a3.45,3.45,0,0,0-3.444-3.461l-13.149-.028h-.008A3.449,3.449,0,0,0,1885.749,177.892Zm-30.632-.067-.022,9.715a3.451,3.451,0,0,0,3.444,3.46l13.149.029a3.449,3.449,0,0,0,3.46-3.444l.022-9.714a3.451,3.451,0,0,0-3.443-3.46l-13.15-.028h-.007A3.45,3.45,0,0,0,1855.118,177.826Zm-30.629-.067-.022,9.715a3.451,3.451,0,0,0,3.443,3.46l13.15.029a3.448,3.448,0,0,0,3.457-3.443l.021-9.716a3.451,3.451,0,0,0-3.443-3.458l-13.15-.028h-.008A3.447,3.447,0,0,0,1824.489,177.759Zm-30.631-.066-.022,9.715a3.452,3.452,0,0,0,3.443,3.46l13.15.028a3.451,3.451,0,0,0,3.46-3.443l.021-9.716a3.45,3.45,0,0,0-3.443-3.458l-13.149-.028h-.008A3.449,3.449,0,0,0,1793.858,177.693Zm-30.63-.067-.021,9.715a3.45,3.45,0,0,0,3.443,3.46l13.15.028a3.45,3.45,0,0,0,3.458-3.443l.021-9.717a3.449,3.449,0,0,0-3.443-3.458l-13.149-.028h-.008A3.448,3.448,0,0,0,1763.228,177.627Zm-30.631-.067-.022,9.715a3.451,3.451,0,0,0,3.443,3.46l13.15.029a3.453,3.453,0,0,0,3.46-3.443l.022-9.717a3.451,3.451,0,0,0-3.443-3.458l-13.15-.028h-.007A3.45,3.45,0,0,0,1732.6,177.56Zm-30.631-.066-.022,9.715a3.451,3.451,0,0,0,3.446,3.459l13.15.029a3.45,3.45,0,0,0,3.457-3.443l.022-9.716a3.451,3.451,0,0,0-3.443-3.458l-13.15-.031h-.007A3.452,3.452,0,0,0,1701.965,177.494Zm-30.629-.067-.022,9.715a3.451,3.451,0,0,0,3.443,3.46l13.15.028a3.451,3.451,0,0,0,3.46-3.443l.021-9.716a3.449,3.449,0,0,0-3.445-3.457l-13.15-.029h-.012A3.446,3.446,0,0,0,1671.336,177.428Zm-30.631-.067-.022,9.715a3.448,3.448,0,0,0,3.443,3.458l13.153.03a3.45,3.45,0,0,0,3.457-3.445l.022-9.715a3.448,3.448,0,0,0-3.443-3.457l-13.15-.031h-.007A3.45,3.45,0,0,0,1640.7,177.361Zm-30.632-.068-.019,9.715a3.448,3.448,0,0,0,3.443,3.458l13.15.031a3.454,3.454,0,0,0,3.46-3.446l.019-9.714a3.447,3.447,0,0,0-3.443-3.46l-13.15-.029h-.008A3.453,3.453,0,0,0,1610.072,177.294Zm-30.63-.067-.021,9.716a3.45,3.45,0,0,0,3.443,3.458l13.149.028a3.448,3.448,0,0,0,3.46-3.443l.021-9.715a3.452,3.452,0,0,0-3.443-3.461l-13.149-.028h-.007A3.453,3.453,0,0,0,1579.442,177.227Zm-30.629-.068-.021,9.717a3.449,3.449,0,0,0,3.443,3.458l13.15.028a3.449,3.449,0,0,0,3.458-3.443l.021-9.715a3.449,3.449,0,0,0-3.443-3.46l-13.149-.028h-.008A3.451,3.451,0,0,0,1548.814,177.16Zm-30.631-.066-.021,9.717a3.45,3.45,0,0,0,3.443,3.457l13.15.029a3.45,3.45,0,0,0,3.46-3.444l.022-9.715a3.451,3.451,0,0,0-3.446-3.459l-13.15-.028h-.01A3.449,3.449,0,0,0,1518.182,177.094Zm-30.631-.066-.021,9.716a3.449,3.449,0,0,0,3.445,3.457l13.149.028a3.448,3.448,0,0,0,3.458-3.442l.022-9.715a3.451,3.451,0,0,0-3.443-3.46l-13.15-.029H1491A3.453,3.453,0,0,0,1487.551,177.028Zm-30.63-.067-.022,9.714a3.453,3.453,0,0,0,3.444,3.46l13.149.028a3.45,3.45,0,0,0,3.46-3.443l.022-9.715a3.451,3.451,0,0,0-3.445-3.46l-13.15-.028h-.008A3.451,3.451,0,0,0,1456.921,176.962Zm-30.631-.067-.022,9.715a3.451,3.451,0,0,0,3.444,3.46l13.152.028a3.447,3.447,0,0,0,3.457-3.443l.022-9.714a3.451,3.451,0,0,0-3.443-3.46l-13.149-.028h-.007A3.45,3.45,0,0,0,1426.289,176.9Zm-30.629-.067-.022,9.715a3.451,3.451,0,0,0,3.443,3.46l13.15.029a3.452,3.452,0,0,0,3.46-3.443l.019-9.715a3.449,3.449,0,0,0-3.443-3.46l-13.15-.028h-.008A3.447,3.447,0,0,0,1395.661,176.828Zm-30.631-.066-.022,9.715a3.451,3.451,0,0,0,3.443,3.46l13.15.028a3.45,3.45,0,0,0,3.46-3.443l.022-9.715a3.451,3.451,0,0,0-3.443-3.46l-13.15-.028h-.008A3.448,3.448,0,0,0,1365.029,176.763ZM1334.4,176.7l-.02,9.714a3.45,3.45,0,0,0,3.443,3.46l13.15.028a3.45,3.45,0,0,0,3.458-3.443l.021-9.717a3.45,3.45,0,0,0-3.443-3.458l-13.15-.028h-.008A3.451,3.451,0,0,0,1334.4,176.7Zm-30.63-.067-.022,9.715a3.452,3.452,0,0,0,3.444,3.46l13.149.029a3.452,3.452,0,0,0,3.46-3.443l.022-9.717a3.45,3.45,0,0,0-3.443-3.458l-13.152-.027h-.008A3.448,3.448,0,0,0,1303.768,176.63Zm-30.631-.066-.022,9.715a3.451,3.451,0,0,0,3.446,3.459l13.15.029a3.45,3.45,0,0,0,3.457-3.443l.021-9.716a3.45,3.45,0,0,0-3.443-3.458l-13.15-.028h-.008A3.45,3.45,0,0,0,1273.136,176.564Zm-30.629-.067-.022,9.715a3.451,3.451,0,0,0,3.443,3.46l13.15.028a3.452,3.452,0,0,0,3.46-3.443l.021-9.717a3.45,3.45,0,0,0-3.445-3.457l-13.15-.03h-.005A3.45,3.45,0,0,0,1242.508,176.5Zm-30.632-.067-.022,9.715a3.451,3.451,0,0,0,3.443,3.46l13.152.027a3.45,3.45,0,0,0,3.458-3.443l.021-9.717a3.449,3.449,0,0,0-3.443-3.457l-13.151-.031h-.008A3.45,3.45,0,0,0,1211.876,176.431Zm-30.63-.067-.022,9.715a3.45,3.45,0,0,0,3.443,3.458l13.15.031a3.453,3.453,0,0,0,3.46-3.443l.019-9.716a3.448,3.448,0,0,0-3.443-3.458l-13.15-.031h-.008A3.45,3.45,0,0,0,1181.246,176.364Zm-30.632-.068-.021,9.717a3.45,3.45,0,0,0,3.443,3.458l13.15.03a3.451,3.451,0,0,0,3.46-3.445l.021-9.715a3.451,3.451,0,0,0-3.443-3.46l-13.149-.028h-.007A3.452,3.452,0,0,0,1150.614,176.3Zm-30.629-.067-.021,9.717a3.446,3.446,0,0,0,3.443,3.457l13.15.031a3.45,3.45,0,0,0,3.458-3.445l.021-9.715a3.451,3.451,0,0,0-3.443-3.46l-13.149-.028h-.008A3.45,3.45,0,0,0,1119.985,176.229Zm-30.631-.066-.021,9.716a3.45,3.45,0,0,0,3.443,3.458l13.15.028a3.449,3.449,0,0,0,3.46-3.443l.022-9.715a3.451,3.451,0,0,0-3.443-3.46l-13.153-.028h-.008A3.45,3.45,0,0,0,1089.354,176.163Zm-30.632-.066-.021,9.716a3.449,3.449,0,0,0,3.445,3.457l13.149.028a3.448,3.448,0,0,0,3.458-3.442l.022-9.715a3.452,3.452,0,0,0-3.443-3.46l-13.15-.029h-.008A3.453,3.453,0,0,0,1058.722,176.1Zm-58-.031-.021,9.716a3.451,3.451,0,0,0,3.445,3.457l13.15.028a3.447,3.447,0,0,0,3.457-3.443l.022-9.715a3.449,3.449,0,0,0-3.443-3.46l-13.149-.029h-.008A3.453,3.453,0,0,0,1000.724,176.067Zm43.94,13.166a3.449,3.449,0,0,0,3.46-3.443l.022-9.715a3.452,3.452,0,0,0-2.636-3.363l-10.7-.022a3.45,3.45,0,0,0-3.458,3.443l-.021,9.716a3.452,3.452,0,0,0,2.637,3.361ZM970.1,176l-.021,9.716a3.45,3.45,0,0,0,3.442,3.458l13.15.028a3.45,3.45,0,0,0,3.46-3.443l.022-9.715a3.452,3.452,0,0,0-3.446-3.46l-13.15-.028h-.008A3.45,3.45,0,0,0,970.1,176Zm-30.632-.067-.022,9.715a3.452,3.452,0,0,0,3.443,3.46l13.152.028a3.448,3.448,0,0,0,3.458-3.443l.022-9.715a3.45,3.45,0,0,0-3.443-3.46l-13.15-.028h-.008A3.45,3.45,0,0,0,939.464,175.934Zm-30.63-.067-.022,9.715a3.452,3.452,0,0,0,3.444,3.46l13.149.028a3.449,3.449,0,0,0,3.46-3.443l.02-9.714a3.448,3.448,0,0,0-3.443-3.46l-13.15-.029h-.007A3.45,3.45,0,0,0,908.834,175.867ZM878.2,175.8l-.022,9.715a3.452,3.452,0,0,0,3.444,3.46l13.149.028a3.449,3.449,0,0,0,3.46-3.443l.022-9.715a3.451,3.451,0,0,0-3.443-3.46l-13.15-.029h-.007A3.45,3.45,0,0,0,878.2,175.8Zm-30.629-.067-.022,9.715a3.452,3.452,0,0,0,3.443,3.46l13.15.028a3.447,3.447,0,0,0,3.457-3.443l.022-9.717a3.451,3.451,0,0,0-3.443-3.458l-13.15-.028h-.008A3.448,3.448,0,0,0,847.574,175.735Zm-30.631-.067-.022,9.715a3.452,3.452,0,0,0,3.443,3.46l13.15.029a3.452,3.452,0,0,0,3.46-3.444l.021-9.716a3.45,3.45,0,0,0-3.443-3.458l-13.149-.028H820.4A3.45,3.45,0,0,0,816.943,175.668Zm-30.63-.067-.022,9.715a3.45,3.45,0,0,0,3.443,3.46l13.15.029a3.451,3.451,0,0,0,3.458-3.443l.021-9.716a3.448,3.448,0,0,0-3.443-3.458l-13.149-.028h-.008A3.448,3.448,0,0,0,786.313,175.6Zm-30.632-.066-.022,9.714a3.452,3.452,0,0,0,3.443,3.46l13.15.028a3.452,3.452,0,0,0,3.46-3.443l.022-9.717a3.451,3.451,0,0,0-3.443-3.457l-13.15-.028h-.008A3.449,3.449,0,0,0,755.681,175.536Zm-30.631-.067-.022,9.715a3.451,3.451,0,0,0,3.446,3.46l13.15.028a3.45,3.45,0,0,0,3.457-3.443l.021-9.717a3.45,3.45,0,0,0-3.443-3.458l-13.15-.031H728.5A3.452,3.452,0,0,0,725.05,175.469Zm-30.629-.067-.022,9.715a3.45,3.45,0,0,0,3.443,3.46l13.15.029a3.452,3.452,0,0,0,3.46-3.444l.021-9.716a3.449,3.449,0,0,0-3.445-3.457l-13.15-.028h-.013A3.445,3.445,0,0,0,694.421,175.4Zm-30.632-.066-.022,9.715a3.449,3.449,0,0,0,3.443,3.458l13.153.03a3.45,3.45,0,0,0,3.457-3.446l.022-9.714a3.449,3.449,0,0,0-3.443-3.458l-13.15-.031h-.007A3.451,3.451,0,0,0,663.79,175.337Zm-30.632-.068-.019,9.716a3.448,3.448,0,0,0,3.443,3.457l13.15.031a3.454,3.454,0,0,0,3.46-3.446l.019-9.714a3.448,3.448,0,0,0-3.443-3.46l-13.15-.028h-.008A3.452,3.452,0,0,0,633.157,175.269Zm-30.63-.067-.021,9.716a3.45,3.45,0,0,0,3.443,3.458l13.149.028a3.448,3.448,0,0,0,3.46-3.443l.021-9.715a3.451,3.451,0,0,0-3.443-3.46l-13.149-.028h-.008A3.451,3.451,0,0,0,602.528,175.2Zm-30.629-.067-.021,9.716a3.448,3.448,0,0,0,3.443,3.458l13.15.028a3.447,3.447,0,0,0,3.457-3.442l.022-9.715a3.449,3.449,0,0,0-3.443-3.461l-13.15-.028h-.008A3.45,3.45,0,0,0,571.9,175.135Zm-30.632-.067-.021,9.717a3.45,3.45,0,0,0,3.443,3.458l13.15.028a3.45,3.45,0,0,0,3.46-3.443l.022-9.715a3.451,3.451,0,0,0-3.446-3.46l-13.15-.028h-.008A3.45,3.45,0,0,0,541.267,175.069ZM510.636,175l-.021,9.716a3.45,3.45,0,0,0,3.445,3.458l13.149.028a3.449,3.449,0,0,0,3.458-3.443l.022-9.715a3.451,3.451,0,0,0-3.443-3.46l-13.15-.028h-.008A3.452,3.452,0,0,0,510.636,175Zm-30.63-.067-.022,9.715a3.452,3.452,0,0,0,3.443,3.46l13.15.028a3.45,3.45,0,0,0,3.46-3.443l.022-9.715a3.45,3.45,0,0,0-3.446-3.459l-13.149-.029h-.008A3.451,3.451,0,0,0,480.006,174.937Zm-30.632-.066-.022,9.714a3.452,3.452,0,0,0,3.443,3.46l13.153.027a3.447,3.447,0,0,0,3.457-3.442l.022-9.715a3.451,3.451,0,0,0-3.443-3.46l-13.15-.029h-.007A3.45,3.45,0,0,0,449.375,174.871Zm-30.629-.068-.022,9.715a3.452,3.452,0,0,0,3.443,3.46l13.15.028a3.452,3.452,0,0,0,3.46-3.443l.019-9.715a3.449,3.449,0,0,0-3.443-3.46l-13.15-.028h-.008A3.447,3.447,0,0,0,418.746,174.8Zm-30.632-.066-.022,9.715a3.451,3.451,0,0,0,3.443,3.46l13.15.028a3.449,3.449,0,0,0,3.46-3.443l.022-9.715a3.451,3.451,0,0,0-3.443-3.46l-13.15-.028h-.007A3.45,3.45,0,0,0,388.114,174.738Zm-30.632-.066-.019,9.714a3.45,3.45,0,0,0,3.443,3.46l13.15.028a3.45,3.45,0,0,0,3.458-3.442l.021-9.717a3.45,3.45,0,0,0-3.443-3.457l-13.149-.029h-.007A3.454,3.454,0,0,0,357.482,174.672Zm-30.629-.067-.022,9.715a3.451,3.451,0,0,0,3.443,3.46l13.15.028a3.452,3.452,0,0,0,3.46-3.443l.021-9.717a3.45,3.45,0,0,0-3.443-3.457l-13.152-.028H330.3A3.448,3.448,0,0,0,326.853,174.6Zm-30.632-.066-.022,9.715a3.452,3.452,0,0,0,3.446,3.46l13.15.028a3.45,3.45,0,0,0,3.457-3.443l.021-9.716a3.45,3.45,0,0,0-3.443-3.458l-13.15-.028h-.008A3.45,3.45,0,0,0,296.221,174.539Zm-30.63-.067-.021,9.715a3.451,3.451,0,0,0,3.443,3.46l13.15.029a3.453,3.453,0,0,0,3.46-3.444l.021-9.716a3.449,3.449,0,0,0-3.445-3.457l-13.151-.031h0A3.453,3.453,0,0,0,265.592,174.472Zm-30.631-.066-.021,9.715a3.451,3.451,0,0,0,3.443,3.46l13.152.028a3.451,3.451,0,0,0,3.458-3.443l.021-9.716a3.45,3.45,0,0,0-3.443-3.458l-13.15-.031h-.007A3.452,3.452,0,0,0,234.96,174.407Zm-30.629-.067-.022,9.715a3.449,3.449,0,0,0,3.443,3.457l13.15.031a3.452,3.452,0,0,0,3.46-3.443l.019-9.716a3.448,3.448,0,0,0-3.443-3.458l-13.15-.03h-.008A3.449,3.449,0,0,0,204.332,174.34Zm-30.632-.068-.021,9.716a3.449,3.449,0,0,0,3.443,3.458l13.15.031a3.451,3.451,0,0,0,3.459-3.446l.022-9.715a3.451,3.451,0,0,0-3.443-3.46l-13.15-.028h-.008A3.451,3.451,0,0,0,173.7,174.271ZM143.07,174.2l-.021,9.716a3.445,3.445,0,0,0,3.442,3.458l13.15.031a3.449,3.449,0,0,0,3.457-3.445l.022-9.715a3.452,3.452,0,0,0-3.443-3.461l-13.15-.028h-.008A3.45,3.45,0,0,0,143.07,174.2Zm-30.631-.067-.021,9.717a3.449,3.449,0,0,0,3.442,3.457l13.15.029a3.45,3.45,0,0,0,3.46-3.443l.022-9.715a3.451,3.451,0,0,0-3.443-3.46L115.9,170.7h-.008A3.45,3.45,0,0,0,112.439,174.138Zm-30.632-.066-.022,9.716a3.45,3.45,0,0,0,3.445,3.457l13.15.029a3.449,3.449,0,0,0,3.458-3.443l.022-9.715a3.452,3.452,0,0,0-3.444-3.46l-13.149-.028h-.008A3.452,3.452,0,0,0,81.807,174.073ZM1947.362,16.209l-.022,9.7a3.44,3.44,0,0,0,3.443,3.458l13.15.028a3.438,3.438,0,0,0,3.46-3.443l.022-9.7a3.451,3.451,0,0,0-3.446-3.459l-13.15-.028h-.008A3.447,3.447,0,0,0,1947.362,16.209Zm-30.632-.066-.021,9.7a3.439,3.439,0,0,0,3.443,3.46l13.152.028a3.437,3.437,0,0,0,3.458-3.442l.021-9.7a3.45,3.45,0,0,0-3.443-3.457l-13.149-.028h-.01A3.451,3.451,0,0,0,1916.73,16.143Zm-30.629-.067-.023,9.7a3.44,3.44,0,0,0,3.445,3.457l13.15.029a3.439,3.439,0,0,0,3.458-3.443l.021-9.7a3.449,3.449,0,0,0-3.443-3.458l-13.149-.028h-.008A3.448,3.448,0,0,0,1886.1,16.077Zm-30.631-.067-.021,9.7a3.439,3.439,0,0,0,3.443,3.458l13.15.028a3.437,3.437,0,0,0,3.46-3.443l.021-9.7a3.45,3.45,0,0,0-3.443-3.458l-13.15-.028h-.007A3.45,3.45,0,0,0,1855.47,16.01Zm-30.631-.066-.022,9.7a3.441,3.441,0,0,0,3.443,3.461l13.152.027a3.438,3.438,0,0,0,3.458-3.442l.021-9.7a3.45,3.45,0,0,0-3.443-3.457L1828.3,12.5h-.008A3.45,3.45,0,0,0,1824.838,15.944Zm-30.63-.067-.022,9.7a3.441,3.441,0,0,0,3.444,3.46l13.149.029a3.442,3.442,0,0,0,3.46-3.443l.021-9.7a3.449,3.449,0,0,0-3.445-3.456l-13.151-.031h-.008A3.45,3.45,0,0,0,1794.208,15.878Zm-30.631-.067-.022,9.7A3.44,3.44,0,0,0,1767,28.967l13.147.029a3.441,3.441,0,0,0,3.46-3.443l.021-9.7a3.45,3.45,0,0,0-3.443-3.458l-13.15-.03h-.008A3.451,3.451,0,0,0,1763.577,15.811Zm-30.629-.067-.022,9.7a3.44,3.44,0,0,0,3.443,3.46l13.15.028a3.441,3.441,0,0,0,3.46-3.443l.021-9.7a3.448,3.448,0,0,0-3.445-3.457l-13.15-.031h-.008A3.45,3.45,0,0,0,1732.948,15.745Zm-30.632-.068-.021,9.7a3.442,3.442,0,0,0,3.443,3.461l13.15.028a3.441,3.441,0,0,0,3.46-3.443l.021-9.7a3.451,3.451,0,0,0-3.443-3.46l-13.15-.028h-.007A3.452,3.452,0,0,0,1702.316,15.676Zm-30.629-.067-.021,9.7a3.438,3.438,0,0,0,3.443,3.46l13.149.029a3.44,3.44,0,0,0,3.458-3.443l.021-9.7a3.449,3.449,0,0,0-3.443-3.46l-13.15-.028h-.008A3.45,3.45,0,0,0,1671.687,15.61Zm-30.631-.066-.022,9.7a3.441,3.441,0,0,0,3.444,3.46l13.149.028a3.439,3.439,0,0,0,3.46-3.443l.022-9.7a3.452,3.452,0,0,0-3.444-3.46l-13.149-.028h-.008A3.45,3.45,0,0,0,1641.056,15.544Zm-30.632-.067-.021,9.7a3.44,3.44,0,0,0,3.446,3.459l13.15.028a3.439,3.439,0,0,0,3.458-3.442l.021-9.7a3.451,3.451,0,0,0-3.444-3.46l-13.149-.029h-.008A3.454,3.454,0,0,0,1610.423,15.477Zm-30.629-.067-.021,9.7a3.438,3.438,0,0,0,3.443,3.458l13.151.031a3.44,3.44,0,0,0,3.459-3.446l.022-9.7A3.452,3.452,0,0,0,1596.4,12l-13.147-.029h-.007A3.452,3.452,0,0,0,1579.794,15.411Zm-30.631-.066-.021,9.7a3.438,3.438,0,0,0,3.445,3.457l13.15.031a3.441,3.441,0,0,0,3.458-3.443l.021-9.7a3.451,3.451,0,0,0-3.443-3.46l-13.15-.028h-.008A3.452,3.452,0,0,0,1549.163,15.345Zm-30.629-.067-.022,9.7a3.44,3.44,0,0,0,3.443,3.458l13.149.028a3.439,3.439,0,0,0,3.46-3.443l.022-9.7a3.451,3.451,0,0,0-3.446-3.459l-13.15-.029h-.008A3.448,3.448,0,0,0,1518.534,15.278Zm-30.631-.066-.022,9.7a3.439,3.439,0,0,0,3.443,3.457l13.149.029a3.439,3.439,0,0,0,3.46-3.444l.022-9.7a3.452,3.452,0,0,0-3.444-3.46l-13.149-.029h-.007A3.45,3.45,0,0,0,1487.9,15.213Zm-30.63-.068-.021,9.7a3.437,3.437,0,0,0,3.443,3.458l13.15.029a3.439,3.439,0,0,0,3.458-3.443l.022-9.7a3.45,3.45,0,0,0-3.444-3.46l-13.149-.028h-.008A3.448,3.448,0,0,0,1457.273,15.145Zm-30.631-.066-.021,9.7a3.439,3.439,0,0,0,3.443,3.458l13.15.028a3.44,3.44,0,0,0,3.46-3.443l.021-9.7a3.45,3.45,0,0,0-3.443-3.458l-13.15-.028h-.008A3.449,3.449,0,0,0,1426.641,15.08Zm-30.631-.066-.022,9.7a3.44,3.44,0,0,0,3.446,3.46l13.149.028a3.437,3.437,0,0,0,3.458-3.443l.021-9.7a3.447,3.447,0,0,0-3.443-3.457l-13.15-.028h-.008A3.45,3.45,0,0,0,1396.01,15.014Zm-30.63-.068-.022,9.7a3.441,3.441,0,0,0,3.444,3.46l13.149.028a3.44,3.44,0,0,0,3.461-3.443l.021-9.7a3.45,3.45,0,0,0-3.443-3.457l-13.149-.029h-.007A3.451,3.451,0,0,0,1365.38,14.946Zm-30.631-.066-.021,9.7a3.439,3.439,0,0,0,3.445,3.459l13.15.028a3.438,3.438,0,0,0,3.458-3.443l.021-9.7a3.45,3.45,0,0,0-3.443-3.458l-13.15-.031h-.007A3.454,3.454,0,0,0,1334.749,14.881Zm-30.629-.067-.022,9.7a3.441,3.441,0,0,0,3.443,3.46l13.15.028a3.441,3.441,0,0,0,3.46-3.443l.021-9.7a3.449,3.449,0,0,0-3.445-3.457l-13.15-.031h0A3.451,3.451,0,0,0,1304.12,14.814Zm-30.632-.066-.022,9.7a3.442,3.442,0,0,0,3.443,3.461l13.15.028a3.441,3.441,0,0,0,3.46-3.444l.021-9.7a3.448,3.448,0,0,0-3.443-3.458l-13.151-.031h-.007A3.451,3.451,0,0,0,1273.488,14.748Zm-30.63-.069-.022,9.7a3.439,3.439,0,0,0,3.444,3.46l13.149.029a3.437,3.437,0,0,0,3.458-3.443l.021-9.7a3.45,3.45,0,0,0-3.443-3.46l-13.15-.029h-.007A3.451,3.451,0,0,0,1242.859,14.679Zm-30.631-.066-.022,9.7a3.442,3.442,0,0,0,3.444,3.46l13.149.028a3.441,3.441,0,0,0,3.46-3.443l.021-9.7a3.451,3.451,0,0,0-3.443-3.46l-13.15-.029h-.007A3.452,3.452,0,0,0,1212.227,14.613Zm-30.63-.067-.021,9.7a3.438,3.438,0,0,0,3.443,3.46l13.15.028a3.439,3.439,0,0,0,3.458-3.443l.021-9.7a3.452,3.452,0,0,0-3.443-3.461l-13.15-.028h-.008A3.451,3.451,0,0,0,1181.6,14.547Zm-30.631-.067-.021,9.7a3.442,3.442,0,0,0,3.443,3.46l13.15.028a3.441,3.441,0,0,0,3.46-3.443l.021-9.7a3.451,3.451,0,0,0-3.443-3.461l-13.152-.027h-.008A3.45,3.45,0,0,0,1150.966,14.48Zm-30.631-.066-.021,9.7a3.441,3.441,0,0,0,3.446,3.459l13.149.029a3.439,3.439,0,0,0,3.457-3.445l.022-9.7a3.451,3.451,0,0,0-3.443-3.46l-13.15-.028h-.008A3.451,3.451,0,0,0,1120.334,14.414Zm-30.629-.067-.021,9.7a3.438,3.438,0,0,0,3.443,3.458l13.15.03a3.442,3.442,0,0,0,3.46-3.445l.022-9.7a3.451,3.451,0,0,0-3.446-3.459l-13.15-.029h-.008A3.45,3.45,0,0,0,1089.706,14.348Zm-30.631-.067-.022,9.7a3.439,3.439,0,0,0,3.443,3.458l13.15.031a3.44,3.44,0,0,0,3.46-3.446l.022-9.7a3.453,3.453,0,0,0-3.444-3.46l-13.149-.028h-.007A3.45,3.45,0,0,0,1059.074,14.281Zm-30.63-.067-.021,9.7a3.437,3.437,0,0,0,3.443,3.458l13.15.028a3.436,3.436,0,0,0,3.458-3.443l.022-9.7a3.45,3.45,0,0,0-3.444-3.46l-13.149-.028h-.008A3.448,3.448,0,0,0,1028.444,14.215Zm-58-.031-.022,9.7a3.439,3.439,0,0,0,3.443,3.457l11.409.025c-.377-.05-.753-.095-1.135-.135a3.427,3.427,0,0,0,3.07-3.407l.021-9.7a3.452,3.452,0,0,0-2.634-3.36l-10.7-.023H973.9A3.447,3.447,0,0,0,970.448,14.184Zm43.937,13.15a3.438,3.438,0,0,0,3.46-3.443l.022-9.7a3.452,3.452,0,0,0-3.443-3.46l-6.238-.013.027.1-3.676-.008a3.451,3.451,0,0,0-3.46,3.444l-.021,9.7a3.436,3.436,0,0,0,2.634,3.36Zm-74.57-13.216-.021,9.7a3.44,3.44,0,0,0,3.443,3.46l13.152.027a3.437,3.437,0,0,0,3.458-3.442l.021-9.7a3.45,3.45,0,0,0-3.443-3.458l-13.149-.028h-.008A3.452,3.452,0,0,0,939.815,14.118Zm-30.629-.067-.023,9.7a3.442,3.442,0,0,0,3.445,3.457l13.15.028a3.438,3.438,0,0,0,3.458-3.442l.021-9.7a3.448,3.448,0,0,0-3.443-3.457l-13.149-.029h-.007A3.45,3.45,0,0,0,909.186,14.052Zm-30.632-.066-.021,9.7a3.438,3.438,0,0,0,3.443,3.457l13.15.029a3.439,3.439,0,0,0,3.46-3.444l.021-9.7a3.45,3.45,0,0,0-3.443-3.457l-13.15-.029h-.007A3.45,3.45,0,0,0,878.555,13.986Zm-30.631-.067-.022,9.7a3.44,3.44,0,0,0,3.443,3.46L864.5,27.1a3.44,3.44,0,0,0,3.458-3.443l.021-9.7a3.45,3.45,0,0,0-3.443-3.458l-13.15-.028h-.008A3.45,3.45,0,0,0,847.923,13.919Zm-30.63-.067-.022,9.7a3.441,3.441,0,0,0,3.444,3.46l13.149.028a3.442,3.442,0,0,0,3.461-3.443l.021-9.7a3.45,3.45,0,0,0-3.445-3.457l-13.151-.031h-.008A3.45,3.45,0,0,0,817.294,13.853Zm-30.632-.066-.022,9.7a3.441,3.441,0,0,0,3.446,3.46l13.147.029a3.441,3.441,0,0,0,3.461-3.443l.021-9.7a3.45,3.45,0,0,0-3.443-3.457l-13.15-.031h-.007A3.452,3.452,0,0,0,786.662,13.787Zm-30.629-.067-.022,9.7a3.44,3.44,0,0,0,3.443,3.46l13.15.029a3.442,3.442,0,0,0,3.46-3.443l.021-9.7a3.449,3.449,0,0,0-3.445-3.457l-13.15-.03h-.008A3.449,3.449,0,0,0,756.033,13.72ZM725.4,13.652l-.021,9.7a3.441,3.441,0,0,0,3.443,3.46l13.15.028a3.44,3.44,0,0,0,3.46-3.443l.021-9.7a3.451,3.451,0,0,0-3.443-3.46l-13.15-.028h-.008A3.451,3.451,0,0,0,725.4,13.652Zm-30.629-.067-.022,9.7a3.44,3.44,0,0,0,3.444,3.46l13.149.028A3.439,3.439,0,0,0,714.8,23.33l.021-9.7a3.45,3.45,0,0,0-3.443-3.461l-13.15-.028h-.008A3.45,3.45,0,0,0,694.772,13.586Zm-30.632-.067-.021,9.7a3.442,3.442,0,0,0,3.444,3.461l13.149.028a3.44,3.44,0,0,0,3.46-3.444l.022-9.7a3.452,3.452,0,0,0-3.444-3.46L667.6,10.076h-.007A3.452,3.452,0,0,0,664.14,13.519Zm-30.631-.066-.021,9.7a3.442,3.442,0,0,0,3.446,3.46l13.15.028A3.438,3.438,0,0,0,653.54,23.2l.022-9.7a3.452,3.452,0,0,0-3.444-3.46l-13.149-.028h-.008A3.454,3.454,0,0,0,633.508,13.453Zm-30.629-.067-.021,9.7a3.438,3.438,0,0,0,3.443,3.457l13.151.031a3.44,3.44,0,0,0,3.459-3.445l.022-9.7a3.451,3.451,0,0,0-3.446-3.459l-13.147-.03h-.007A3.452,3.452,0,0,0,602.879,13.387Zm-30.631-.067-.021,9.7a3.437,3.437,0,0,0,3.445,3.456l13.15.031a3.44,3.44,0,0,0,3.458-3.442l.021-9.7A3.453,3.453,0,0,0,588.857,9.9l-13.15-.028H575.7A3.453,3.453,0,0,0,572.248,13.32Zm-30.63-.067-.021,9.7a3.439,3.439,0,0,0,3.443,3.457l13.149.028A3.437,3.437,0,0,0,561.65,23l.022-9.7a3.451,3.451,0,0,0-3.446-3.46l-13.15-.028h-.008A3.449,3.449,0,0,0,541.618,13.253Zm-30.632-.066-.021,9.7a3.44,3.44,0,0,0,3.443,3.458l13.149.028a3.44,3.44,0,0,0,3.461-3.443l.022-9.7a3.452,3.452,0,0,0-3.444-3.46l-13.149-.028h-.008A3.45,3.45,0,0,0,510.987,13.188Zm-30.629-.067-.021,9.7a3.438,3.438,0,0,0,3.443,3.458l13.15.028a3.438,3.438,0,0,0,3.458-3.443l.022-9.7a3.45,3.45,0,0,0-3.444-3.46l-13.149-.029h-.008A3.449,3.449,0,0,0,480.358,13.121Zm-30.632-.067-.021,9.7a3.438,3.438,0,0,0,3.443,3.458l13.15.028a3.44,3.44,0,0,0,3.46-3.443l.021-9.7a3.448,3.448,0,0,0-3.443-3.457l-13.15-.029h-.007A3.45,3.45,0,0,0,449.726,13.055Zm-30.632-.066-.022,9.7a3.44,3.44,0,0,0,3.446,3.46l13.149.028a3.437,3.437,0,0,0,3.458-3.443l.021-9.7A3.448,3.448,0,0,0,435.7,9.573l-13.15-.028h-.008A3.45,3.45,0,0,0,419.095,12.989Zm-30.63-.067-.022,9.7a3.441,3.441,0,0,0,3.444,3.46l13.149.028a3.441,3.441,0,0,0,3.46-3.443l.022-9.7a3.451,3.451,0,0,0-3.443-3.458l-13.149-.028h-.007A3.451,3.451,0,0,0,388.465,12.922Zm-30.632-.066-.022,9.7a3.44,3.44,0,0,0,3.446,3.46l13.15.028a3.439,3.439,0,0,0,3.458-3.443l.021-9.7a3.45,3.45,0,0,0-3.443-3.457l-13.15-.031h-.008A3.453,3.453,0,0,0,357.834,12.857ZM327.2,12.79l-.022,9.7a3.44,3.44,0,0,0,3.443,3.46l13.15.028a3.441,3.441,0,0,0,3.46-3.443l.021-9.7a3.45,3.45,0,0,0-3.445-3.457l-13.15-.031h0A3.452,3.452,0,0,0,327.2,12.79Zm-30.632-.067-.022,9.7A3.441,3.441,0,0,0,300,25.88l13.15.028a3.441,3.441,0,0,0,3.46-3.443l.021-9.7a3.449,3.449,0,0,0-3.442-3.458l-13.151-.031h-.007A3.451,3.451,0,0,0,296.573,12.723Zm-30.63-.069-.022,9.7a3.439,3.439,0,0,0,3.444,3.46l13.149.028a3.438,3.438,0,0,0,3.458-3.443l.021-9.7a3.451,3.451,0,0,0-3.443-3.461L269.4,9.212h-.008A3.449,3.449,0,0,0,265.944,12.654Zm-30.632-.066-.021,9.7a3.441,3.441,0,0,0,3.444,3.46l13.149.029a3.44,3.44,0,0,0,3.46-3.444l.022-9.7a3.452,3.452,0,0,0-3.444-3.46l-13.149-.028h-.007A3.452,3.452,0,0,0,235.311,12.588Zm-30.629-.067-.021,9.7a3.438,3.438,0,0,0,3.443,3.46l13.15.029a3.438,3.438,0,0,0,3.457-3.443l.022-9.7a3.452,3.452,0,0,0-3.444-3.46L208.14,9.078h-.007A3.451,3.451,0,0,0,204.683,12.522Zm-30.632-.066-.021,9.7a3.441,3.441,0,0,0,3.443,3.46l13.15.028a3.441,3.441,0,0,0,3.46-3.443l.021-9.7a3.452,3.452,0,0,0-3.443-3.46l-13.152-.028H177.5A3.45,3.45,0,0,0,174.051,12.456Zm-30.632-.067-.021,9.7a3.442,3.442,0,0,0,3.445,3.46l13.15.028a3.438,3.438,0,0,0,3.457-3.445l.022-9.7a3.452,3.452,0,0,0-3.443-3.461l-13.15-.028h-.007A3.452,3.452,0,0,0,143.42,12.389Zm-30.63-.067-.021,9.7a3.438,3.438,0,0,0,3.443,3.458l13.15.031a3.443,3.443,0,0,0,3.46-3.446l.022-9.7a3.451,3.451,0,0,0-3.446-3.46l-13.15-.028h-.008A3.45,3.45,0,0,0,112.79,12.323Zm-30.632-.066-.021,9.7a3.44,3.44,0,0,0,3.443,3.458l13.15.03A3.439,3.439,0,0,0,102.191,22l.021-9.7a3.451,3.451,0,0,0-3.443-3.46L85.619,8.814H85.61A3.45,3.45,0,0,0,82.158,12.257ZM51.53,12.191l-.021,9.7a3.436,3.436,0,0,0,3.443,3.457l13.15.029a3.437,3.437,0,0,0,3.458-3.443l.021-9.7a3.45,3.45,0,0,0-3.443-3.46L54.987,8.747h-.008A3.448,3.448,0,0,0,51.53,12.191ZM20.9,12.124l-.021,9.7a3.438,3.438,0,0,0,3.443,3.458l13.15.028a3.437,3.437,0,0,0,3.46-3.443l.022-9.7a3.452,3.452,0,0,0-3.443-3.461l-13.15-.028h-.007A3.45,3.45,0,0,0,20.9,12.124Z" transform="matrix(1, 0.017, -0.017, 1, -49.896, 738.831)"/></g></svg>